<?xml version="1.0" encoding="UTF-8" standalone="no"?>
<svg
   version="1.0"
   width="1161.000000pt"
   height="189.000000pt"
   viewBox="0 0 1161.000000 189.000000"
   preserveAspectRatio="xMidYMid meet"
   id="svg20"
   sodipodi:docname="logo_verzus.svg"
   inkscape:version="1.2.2 (b0a8486541, 2022-12-01)"
   xmlns:inkscape="http://www.inkscape.org/namespaces/inkscape"
   xmlns:sodipodi="http://sodipodi.sourceforge.net/DTD/sodipodi-0.dtd"
   xmlns="http://www.w3.org/2000/svg"
   xmlns:svg="http://www.w3.org/2000/svg">
  <defs
     id="defs24" />
  <sodipodi:namedview
     id="namedview22"
     pagecolor="#ffffff"
     bordercolor="#000000"
     borderopacity="0.25"
     inkscape:showpageshadow="2"
     inkscape:pageopacity="0.0"
     inkscape:pagecheckerboard="0"
     inkscape:deskcolor="#d1d1d1"
     inkscape:document-units="pt"
     showgrid="false"
     inkscape:zoom="0.4502584"
     inkscape:cx="843.95983"
     inkscape:cy="-12.215208"
     inkscape:window-width="1920"
     inkscape:window-height="963"
     inkscape:window-x="0"
     inkscape:window-y="32"
     inkscape:window-maximized="1"
     inkscape:current-layer="g1254"
     showguides="true">
    <sodipodi:guide
       position="402.8416,174.21682"
       orientation="0,-1"
       id="guide1002"
       inkscape:locked="false" />
  </sodipodi:namedview>
  <g
     transform="translate(0.000000,189.000000) scale(0.100000,-0.100000)"
     fill="#000000"
     stroke="none"
     id="g18">
    <g
       id="g1254"
       transform="matrix(1.1199589,0,0,1.1199589,-1.5620459e-7,-341.44552)">
      <path
         d="m 9555.3771,1876.7179 c -263,-32 -453,-136 -527,-288 -25,-50 -28,-67 -28,-161 0,-98 2,-109 30,-159 69,-125 205,-188 565,-261 233.9996,-47.99996 314.9996,-73.99996 353.9996,-111.99996 25,-25 28,-34 23,-69 -7,-51 -25,-72 -88,-98 -159.9996,-69 -432.9996,-41 -697.9996,71 l -94,40 -17,-22 c -9,-12 -41,-67 -70,-123 l -53,-101 23,-15 c 36,-24 195,-89 290,-119 81,-25 97,-26 360,-30 313.9996,-4 346.9996,0 485.9999,69 95,47 173,119 211,198 21,43 28,73 31,140 5,115 -20,183.99996 -92,256.99996 -88,87 -202,130 -520.9999,194 -217,44 -291,67 -333,107 -31,29 -34,37 -29,70 12,74 90,115 244,128 148,13 331.9996,-19 461.9999,-80 87,-41 73,-50 152,100 31,60 50,107 47,117 -14,35 -208,104 -373.0003,133 -111.9996,19 -265.9996,25 -354.9996,14 z"
         id="path2"
         inkscape:export-filename="LOGO_VERZUS.png"
         inkscape:export-xdpi="126.80642"
         inkscape:export-ydpi="126.80642"
         style="fill:#000000" />
      <path
         d="m 2.3770455,1850.9228 c -13.9999995,-5 23.0000005,-79 410.0000045,-817.9999 127,-241.99997 248,-470.99997 268,-509.99997 l 36,-70 h 204.00001 204.00004 l 159,300 c 327,620.99987 567,1083.99987 567,1093.99987 0,8 -64,11 -198,11 h -199 l -232,-452 C 965.37706,911.92293 940.37706,864.92293 925.37706,865.92293 c -14,1 -73,109 -313.00001,576.99987 l -210,410 -194,2 c -106,1 -199.0000045,-1 -206.0000045,-4 z"
         id="path4"
         style="fill:#000000" />
      <path
         d="M 3746.7771,1155.4229 V 449.42293 h 190 190 v 210 210 h 176 176 l 31,-32 c 16,-18 90,-113 164,-210 l 133,-178 h 216 215 l -30,43 c -17,23 -98,129 -181,235 -82,107 -150,195 -150,197 0,2 33,21 73,42 87,44.99997 183,136.99997 223,212.99997 28,52.9999 29,60.9999 29,189.9999 0,133 -1,137 -33,202 -61,123 -188,214 -365,260 -76,19 -115,21 -569,25 l -488,5 z m 929,398.9999 c 73,-40 101,-84 101,-157 0,-70 -12,-104 -53,-146 -62,-63.9999 -112,-73.9999 -389,-79.9999 l -248,-4 v 211.9999 211 l 268,-3 267,-3 z"
         id="path8"
         style="fill:#000000" />
      <path
         d="m 5510.9771,1720.4228 v -140 l 88,-1 c 48,-1 246,-4 440,-8 l 352,-6 -387,-365 c -214,-200.99987 -420,-393.99987 -459,-429.99987 l -72,-65 -1,-127 -1,-128 h 730 730 v 140 140 l -177,1 c -98,1 -309,5 -470,8 l -291,6 389,369.99997 c 214,203.9999 418,397.9999 454,431.9999 l 65,63 v 125 125 h -695 -695 z"
         id="path10"
         style="fill:#000000" />
      <path
         d="m 7171.1771,1429.4228 c 4,-243.9999 12,-471.99987 17,-507.99987 23,-159 147,-319 309,-398 144,-71 213,-84 450,-84 238,0 311,11 422,67 165,83 254,183 321,365 20,52 21,81 25,527.99987 l 4,472 h -185 -184 l -6,-157 c -4,-87 -7,-288 -7,-447 V 979.42293 l -37,-70 c -73,-140 -167,-183 -382,-176 -114,3 -133,6 -183,31 -62,30 -115,83 -150,149 -23,43 -23,45 -26,500.99987 l -3,457 h -196 -196 z"
         id="path12"
         style="fill:#000000" />
      <g
         id="g1227"
         transform="translate(-476.0456,189.42293)"
         style="fill:#000000">
        <path
           d="M 2559.6227,408.98899 V 260 h 715 715 v 148.98899 148.98898 h -715 -715 z"
           id="path16"
           style="fill:#000000;stroke-width:1.0316" />
        <path
           d="m 2559.6227,1523.0109 v -148.989 h 715 715 v 148.989 148.989 h -715 -715 z"
           id="path16-3"
           style="fill:#000000;stroke-width:1.0316" />
        <path
           d="m 2559.6227,965.99988 v -148.989 h 715 715 v 148.989 148.98912 h -715 -715 z"
           id="path16-3-6"
           style="fill:#000000;stroke-width:1.0316" />
      </g>
    </g>
  </g>
</svg>
