<?xml version="1.0" standalone="no"?>
<!DOCTYPE svg PUBLIC "-//W3C//DTD SVG 20010904//EN"
 "http://www.w3.org/TR/2001/REC-SVG-20010904/DTD/svg10.dtd">
<svg version="1.0" xmlns="http://www.w3.org/2000/svg"
 width="1774.000000pt" height="887.000000pt" viewBox="0 0 1774.000000 887.000000"
 preserveAspectRatio="xMidYMid meet">

<g transform="translate(0.000000,887.000000) scale(0.100000,-0.100000)"
fill="#000000" stroke="none">
<path d="M14945 5570 c-120 -15 -240 -57 -340 -121 -277 -175 -346 -563 -147
-824 78 -102 217 -191 362 -231 57 -15 128 -18 580 -23 467 -5 519 -8 555 -24
164 -74 175 -268 20 -354 l-50 -28 -653 -5 -652 -5 -108 -191 -108 -191 245
-6 c347 -10 1027 -8 1211 3 225 13 352 61 469 179 104 106 159 227 168 371 18
272 -123 491 -379 590 -141 55 -204 60 -706 60 -312 0 -467 4 -493 11 -80 24
-148 110 -149 187 0 70 44 137 115 175 40 22 47 22 657 25 l616 3 105 177 c57
97 110 187 116 200 l12 22 -658 0 c-362 0 -674 2 -693 4 -19 2 -62 1 -95 -4z"/>
<path d="M1258 5538 c139 -231 914 -1609 1083 -1928 l24 -45 234 0 233 0 72
130 c40 72 139 249 220 395 145 260 566 1017 732 1317 46 83 84 154 84 157 0
3 -110 6 -245 6 l-245 0 -36 -72 c-20 -40 -102 -192 -182 -338 -80 -146 -195
-357 -257 -470 -316 -582 -370 -680 -375 -680 -5 0 -82 139 -318 575 -71 132
-220 408 -332 613 l-202 372 -255 0 -255 0 20 -32z"/>
<path d="M4342 5373 l3 -198 1043 -2 1042 -2 0 199 0 200 -1045 0 -1045 0 2
-197z"/>
<path d="M6860 4570 l0 -1000 215 0 215 0 2 338 3 337 245 3 245 2 362 -340
362 -340 288 1 288 0 -135 130 c-74 72 -237 225 -362 342 l-227 211 82 17
c154 32 276 97 371 200 111 119 166 261 167 429 0 52 -2 109 -6 125 -64 285
-231 449 -535 526 -70 18 -122 19 -827 19 l-753 0 0 -1000z m1525 583 c63 -21
136 -93 153 -149 33 -113 -1 -237 -82 -296 -91 -66 -58 -63 -636 -63 l-525 0
-3 263 -2 262 523 0 c462 0 529 -2 572 -17z"/>
<path d="M9352 5373 l3 -198 680 -5 680 -5 -31 -25 c-17 -14 -195 -171 -394
-350 -200 -179 -492 -440 -649 -580 l-286 -256 -2 -109 c-1 -61 0 -147 3 -192
l6 -83 1003 0 1004 0 3 194 3 193 -364 7 c-200 4 -514 4 -697 0 -237 -5 -334
-4 -334 4 0 6 13 21 29 34 15 13 244 212 507 443 263 231 563 492 666 580
l188 160 0 193 0 192 -1010 0 -1010 0 2 -197z"/>
<path d="M11780 4997 c0 -340 4 -607 10 -656 14 -108 59 -246 111 -341 57
-103 203 -247 322 -317 102 -60 267 -116 407 -138 112 -18 393 -20 506 -4 383
53 688 280 804 597 57 157 60 197 60 843 l0 589 -215 0 -215 0 0 -572 c0 -631
-2 -657 -61 -776 -60 -123 -196 -228 -346 -266 -148 -38 -371 -40 -523 -4 -85
20 -207 84 -265 139 -69 65 -130 183 -145 279 -6 38 -10 301 -10 633 l0 567
-220 0 -220 0 0 -573z"/>
<path d="M4340 4590 l0 -200 1045 0 1045 0 0 200 0 200 -1045 0 -1045 0 0
-200z"/>
<path d="M4344 3967 c-2 -7 -3 -98 -2 -202 l3 -190 1043 -3 1042 -2 0 205 0
205 -1040 0 c-837 0 -1042 -3 -1046 -13z"/>
</g>
</svg>
